# xmcd
#
# Track frame offsets: 
#        150
#        17894
#        31316
#        51657
#        67281
#
# Disc length: 1014 seconds
#
# Revision: 2
# Processed by: cddbd v1.5.2PL0 Copyright (c) Steve Scherf et al.
# Submitted via: ExactAudioCopy v1.3
#
DISCID=4903f405
DTITLE=Caitlin Rose - Columbia Hotel
DYEAR=2010
DGENRE=Alternative
TTITLE0=Own Side
TTITLE1=Caitlin Rose and Keegan DeWitt - You Never Come Home For Christm
TTITLE1=as
TTITLE2=For The Rabbits
TTITLE3=Faithless Love
TTITLE4=Marie
EXTD=
EXTT0=
EXTT1=
EXTT2=
EXTT3=
EXTT4=
PLAYORDER=
